<svg width="512" height="512" viewBox="0 0 512 512" fill="none" xmlns="http://www.w3.org/2000/svg">
<rect width="512" height="512" rx="128" fill="#0F172A"/>
<path d="M139.26 339.702L302.848 339.702C316.756 339.702 328.031 350.976 328.031 364.885C328.031 378.793 316.756 390.067 302.848 390.067L139.26 390.067C125.352 390.067 114.077 378.793 114.077 364.885C114.077 350.976 125.352 339.702 139.26 339.702Z" fill="url(#paint0_linear)"/>
<path d="M183.923 230.817L347.511 230.817C361.42 230.817 372.694 242.092 372.694 256C372.694 269.908 361.42 281.183 347.511 281.183L183.923 281.183C170.015 281.183 158.74 269.908 158.74 256C158.74 242.092 170.015 230.817 183.923 230.817Z" fill="url(#paint1_linear)"/>
<path d="M228.586 121.933L392.174 121.933C406.083 121.933 417.357 133.207 417.357 147.115C417.357 161.024 406.083 172.298 392.174 172.298L228.586 172.298C214.678 172.298 203.404 161.024 203.404 147.115C203.404 133.207 214.678 121.933 228.586 121.933Z" fill="url(#paint2_linear)"/>
<defs>
<linearGradient id="paint0_linear" x1="114.077" y1="364.885" x2="328.031" y2="364.885" gradientUnits="userSpaceOnUse">
<stop stop-color="#3B82F6"/>
<stop offset="1" stop-color="#06B6D4"/>
</linearGradient>
<linearGradient id="paint1_linear" x1="158.74" y1="256" x2="372.694" y2="256" gradientUnits="userSpaceOnUse">
<stop stop-color="#3B82F6"/>
<stop offset="1" stop-color="#06B6D4"/>
</linearGradient>
<linearGradient id="paint2_linear" x1="203.404" y1="147.115" x2="417.357" y2="147.115" gradientUnits="userSpaceOnUse">
<stop stop-color="#3B82F6"/>
<stop offset="1" stop-color="#06B6D4"/>
</linearGradient>
</defs>
</svg>